# xmcd CD database file
#
# Track frame offsets:
#	150
#	24137
#	46085
#	66726
#	77545
#	98198
#	116777
#	129345
#	146416
#	168307
#	184203
#	194327
#	211816
#
# Disc length: 3184 seconds
#
# Revision: 0
# Processed by: cddbd v1.5.1PL0 Copyright (c) Steve Scherf et al.
# Submitted via: CDex 1.51
#
DISCID=af0c6e0d
DTITLE=Wyse - Colors
DYEAR=2005
DGENRE=JPop
TTITLE0=Colors
TTITLE1=イイんじゃない
TTITLE2=Vanishing
TTITLE3=雨の日の朝
TTITLE4=My seethrough life
TTITLE5=Magic
TTITLE6=トレンチコート
TTITLE7=誘惑なパラダイス
TTITLE8=Tears of snow
TTITLE9=インスピレーション
TTITLE10=やってらんねぇ
TTITLE11=I'm a dreamer
TTITLE12=Friend
EXTD=YEAR: 2005
EXTT0=
EXTT1=
EXTT2=
EXTT3=
EXTT4=
EXTT5=
EXTT6=
EXTT7=
EXTT8=
EXTT9=
EXTT10=
EXTT11=
EXTT12=
PLAYORDER=
